<?xml version="1.0" encoding="UTF-8"?>
<svg xmlns="http://www.w3.org/2000/svg" viewBox="-24.00 -24.00 1151.42 492.20" width="1151.42" height="492.20">
  <g transform="translate(-80.15,-398.37)">
    <path fill="#1B5E20" d="M625.300293,718.859070 C621.979492,716.930847 618.992065,715.175354 616.219971,713.546387 C614.472900,714.143921 613.889404,715.402954 613.161743,716.492188 C605.777100,727.546570 595.135193,730.769104 582.646790,728.663269 C568.730530,726.316589 557.712097,718.886292 549.249878,708.183655 C547.862061,707.848450 547.270264,708.498718 546.729126,709.105652 C537.054077,719.956604 524.510010,723.889954 510.457184,724.086426 C490.415955,724.366577 470.247040,724.462280 451.339691,716.853516 C442.992859,713.494568 435.996338,713.270508 427.776001,716.938354 C417.065552,721.717346 405.323608,723.357849 393.633575,723.641968 C375.868500,724.073792 357.995819,725.963623 340.424500,721.349243 C336.054504,720.201660 332.073730,718.149780 328.108704,716.081787 C326.259460,717.748901 326.470825,719.857361 326.065430,721.732483 C321.784912,741.532593 312.295532,758.082397 295.605713,770.007263 C283.613129,778.575989 270.728241,780.404358 256.812561,774.912598 C247.046402,771.058472 237.371948,767.015198 227.857162,762.588501 C225.859207,761.658936 223.033844,761.122192 224.193253,757.759277 C225.201614,754.834595 227.193405,753.636841 230.368408,754.052917 C240.490921,755.379395 250.644257,755.744385 260.710846,753.702209 C279.278107,749.935486 294.387573,740.661926 305.484711,725.126770 C312.033478,715.959045 312.882141,706.604309 307.079895,696.660156 C303.386261,690.329834 299.961456,683.841187 295.736664,677.838806 C294.255585,675.734436 293.805176,673.841919 295.198059,671.432373 C298.614838,665.521606 301.777191,659.464233 305.158722,653.532410 C306.027039,652.009155 306.798279,649.928101 308.986877,650.009277 C311.254059,650.093323 311.549042,652.334167 312.327850,653.917786 C315.266815,659.893616 318.416138,665.781860 321.032349,671.897339 C327.474884,686.956909 339.258698,694.083069 355.093018,694.499023 C372.560486,694.957825 390.066040,695.716980 407.502319,693.618530 C408.269104,693.526306 408.998993,693.127625 409.570099,692.931946 C409.927673,691.440674 409.110748,690.715393 408.535950,689.950500 C393.174744,669.511047 397.981415,641.323730 414.262024,623.918945 C421.564514,616.112244 429.747101,610.087280 440.815308,609.724182 C457.333038,609.182312 468.772522,617.796814 476.231659,631.564026 C486.652069,650.796631 484.964081,669.658875 472.342346,687.524231 C471.298859,689.001221 470.202332,690.440857 468.945770,692.148865 C472.143982,694.720398 475.838013,693.901184 479.076660,694.128174 C492.862671,695.094421 506.672607,695.327209 520.474609,694.085693 C531.554199,693.089050 539.749451,687.259094 546.357117,678.799805 C549.739746,674.469360 552.975220,670.017212 556.126465,665.514648 C559.011597,661.392273 562.299988,657.657104 566.028442,654.300537 C577.415771,644.049011 590.277893,644.413208 601.089844,655.394531 C606.611694,661.002930 611.276855,667.327637 615.098145,674.182373 C626.300537,694.277649 641.976501,696.087158 661.566528,694.282104 C662.390320,694.206299 663.194702,693.939636 664.014465,693.799255 C677.670715,691.460388 682.328430,685.879944 681.590576,671.948975 C680.558899,652.471191 681.047241,632.976501 680.610962,613.493530 C680.308899,600.007141 680.070862,586.518982 679.900085,573.030334 C679.831177,567.592590 678.766418,562.459351 676.168518,557.657593 C675.298340,556.049316 674.165955,554.292419 675.813049,552.611633 C682.650085,545.634949 689.559937,538.729614 697.158386,531.077759 C700.622314,539.088745 703.061707,546.398071 703.110657,553.906433 C703.368347,593.395569 703.327698,632.888428 703.049133,672.377686 C702.984192,681.589111 700.526306,690.577087 696.155090,698.758606 C688.600525,712.898315 677.023254,721.558716 660.802551,723.414917 C648.725403,724.796936 636.838257,724.652344 625.300293,718.859070 M461.148376,650.495544 C459.917236,648.722412 458.831146,646.824524 457.431030,645.196716 C449.240387,635.674072 435.069183,634.399719 425.096436,642.212402 C415.838806,649.464844 414.689056,661.375061 422.373535,672.052124 C426.768127,678.158081 432.950531,682.061157 439.650146,685.188110 C440.498322,685.583984 441.608490,685.721436 442.541290,685.587891 C458.343109,683.324829 467.834137,666.065857 461.148376,650.495544 M576.692078,698.866882 C585.696350,702.319458 594.625610,704.040283 603.715576,698.296082 C600.732483,692.077820 597.453125,686.899963 593.771240,682.003235 C584.795898,670.066528 573.676575,670.271301 564.936890,682.423462 C560.716919,688.291199 560.725708,688.279663 566.301636,692.524841 C569.345947,694.842590 572.462585,697.034912 576.692078,698.866882 z" />
    <path fill="#1B5E20" d="M100.754639,634.811890 C104.697906,631.849731 104.156540,627.121094 106.167877,623.680115 C109.527130,617.933105 113.394112,612.484253 117.000397,606.879700 C118.830338,604.035767 120.714661,603.716980 123.547180,605.833740 C136.109360,615.221497 148.553574,624.724548 158.749359,636.787903 C171.918594,652.369324 178.080704,669.909546 172.034409,690.088440 C166.048035,710.067322 151.689713,721.142456 131.443359,723.646973 C113.079132,725.918579 96.734467,720.967224 86.336044,704.357971 C76.819817,689.157715 79.444519,673.441345 86.344048,657.981934 C90.035835,649.709839 95.127037,642.300232 100.754639,634.811890 M110.641792,649.118042 C106.773888,654.553589 102.913597,660.013855 100.908821,666.471802 C96.767845,679.811096 101.582863,689.357361 114.840370,693.204102 C125.040497,696.163757 135.305984,695.737183 145.119019,691.374573 C156.714523,686.219543 158.646851,679.426453 151.692001,668.780457 C145.886841,659.894226 138.429520,652.490662 130.032578,646.120483 C117.331795,636.485291 121.273987,635.522827 110.641792,649.118042 z" />
    <path fill="#1B5E20" d="M752.194824,654.000000 C751.903076,666.140015 752.836426,677.803223 751.319946,689.422180 C749.637573,702.312439 744.687134,713.755676 736.495300,723.808105 C735.169495,725.435059 733.901428,727.826111 731.341858,726.878418 C728.960754,725.996826 729.741089,723.464539 729.734558,721.570679 C729.668457,702.585754 729.737427,683.600159 729.630554,664.615601 C729.463684,634.978638 729.142578,605.342529 728.999451,575.705505 C728.968445,569.289246 728.133484,563.082886 725.645935,557.168030 C724.635010,554.764160 724.595703,552.790833 726.637695,550.859314 C733.411011,544.452271 740.099426,537.955444 746.836365,531.509888 C747.803772,530.584412 748.890625,529.575928 750.348999,530.224060 C751.984924,530.951050 752.011414,532.597229 752.027527,534.093994 C752.113586,542.087158 752.206360,550.080627 752.209534,558.074036 C752.222290,589.882690 752.202698,621.691345 752.194824,654.000000 z" />
    <path fill="#1B5E20" d="M211.088043,581.096313 C216.680038,575.597290 221.993881,570.319458 227.381821,565.118469 C228.748734,563.799011 229.914017,561.449402 232.222412,562.329041 C234.522156,563.205505 233.938675,565.694702 233.964890,567.612183 C234.062714,574.767883 234.085892,581.924988 234.090042,589.081543 C234.107391,619.040100 234.228287,648.999390 234.064545,678.957031 C233.979706,694.476868 230.207169,708.940247 220.069916,721.210144 C219.222641,722.235596 218.397949,723.288086 217.467545,724.234436 C216.332840,725.388489 215.268143,727.071655 213.309753,726.231140 C211.376755,725.401489 211.799728,723.433716 211.790619,721.834167 C211.706299,707.022034 211.752686,692.208801 211.601318,677.397522 C211.358170,653.605835 210.982407,629.815491 210.689911,606.024292 C210.633789,601.459717 209.719513,596.963318 207.892761,592.930847 C205.625992,587.926941 206.680725,584.402039 211.088043,581.096313 z" />
    <path fill="#D4A843" d="M148.177063,587.268372 C145.507904,590.856079 143.282700,590.381775 140.763290,587.470093 C136.203201,582.200134 131.449432,577.097778 126.319550,571.419556 C120.100548,577.552612 114.910820,582.406982 110.051682,587.572327 C107.570251,590.210144 105.806343,590.608215 103.173363,587.803345 C98.621368,582.954407 93.844910,578.307495 89.010521,573.736572 C86.984001,571.820496 86.830513,570.353333 88.846962,568.381836 C93.961945,563.380798 99.027794,558.326233 103.994675,553.178589 C106.112366,550.983887 107.627533,551.736389 109.394669,553.557983 C113.564705,557.856506 117.930542,561.968811 122.015816,566.344482 C124.559799,569.069275 126.497635,568.905212 128.976242,566.236755 C132.936417,561.973328 137.249969,558.040039 141.268509,553.828186 C143.483765,551.506409 145.217636,551.462769 147.472061,553.836731 C152.167999,558.781616 157.017639,563.585022 161.917267,568.329773 C163.908905,570.258423 163.995605,571.730896 161.930939,573.689575 C157.345139,578.039917 152.922501,582.562134 148.177063,587.268372 z" />
    <path fill="#D4A843" d="M424.501770,557.251587 C429.945526,563.093689 435.069031,568.754700 440.828003,575.117798 C446.813538,568.886414 451.628296,564.090271 456.173065,559.050598 C458.420990,556.557922 460.104736,555.966675 462.620789,558.705627 C467.125183,563.609192 471.835785,568.326904 476.550232,573.032166 C478.388580,574.866882 478.919373,576.234070 476.714935,578.361816 C471.925873,582.984131 467.316467,587.805237 462.833588,592.727234 C460.446716,595.347839 458.644562,595.206177 456.270111,592.734375 C451.575195,587.847046 446.669769,583.161926 441.075043,577.624878 C436.195679,582.792908 431.640472,587.390503 427.363251,592.233521 C424.820465,595.112671 422.778503,595.437012 420.020599,592.517029 C415.563049,587.797485 410.859711,583.309692 406.245575,578.738770 C404.713959,577.221375 403.495819,575.767944 405.573639,573.713989 C410.902252,568.446350 416.171539,563.118774 421.472443,557.823059 C422.221588,557.074646 423.100159,556.678833 424.501770,557.251587 z" />
    <path fill="#1B5E20" d="M224.423279,539.898865 C231.050034,540.480164 236.647583,538.442139 242.202866,536.055725 C243.757477,535.387939 245.555649,533.876953 247.240723,535.647217 C248.720856,537.202209 247.131317,538.712463 246.780655,540.257141 C245.531296,545.760620 241.832825,548.210266 236.652695,549.949646 C225.618454,553.654907 214.821457,558.063232 203.891632,562.086670 C202.140503,562.731201 200.034622,564.195862 198.409988,562.043335 C196.811142,559.924927 198.896683,558.365295 199.773331,556.693054 C200.311462,555.666565 200.901367,554.597107 201.714249,553.797180 C205.038712,550.525452 206.449539,547.117737 202.960846,543.080200 C202.757629,542.845032 202.701294,542.469788 202.613876,542.149597 C199.819183,531.911133 204.538147,524.132874 211.572205,517.781677 C218.437500,511.582886 226.426270,507.411255 236.185394,511.303101 C239.457718,512.608032 242.051422,514.814758 242.169418,518.585205 C242.296570,522.648743 240.170959,525.925781 237.341339,528.636841 C235.641876,530.265137 234.331558,528.971375 233.262604,527.519592 C231.559753,525.206909 229.228439,524.170288 226.404266,524.010986 C220.926865,523.702148 215.957047,526.996643 215.403336,531.360474 C214.885254,535.443604 218.091461,538.618469 224.423279,539.898865 z" />
    <path fill="#1B5E20" d="M584.057373,596.780654 C576.170898,599.619949 568.655334,602.337051 561.129883,605.026748 C559.595337,605.575210 557.860962,606.630447 556.479614,605.126113 C555.078613,603.600295 556.620178,602.034194 557.004517,600.491348 C558.571472,594.201858 562.710144,591.209976 568.855042,589.205032 C582.777832,584.662429 596.413513,579.241165 610.176392,574.205642 C611.975403,573.547439 613.737915,572.362197 615.791931,573.184402 C615.924744,580.350540 611.913391,586.581130 605.995117,588.730605 C598.796021,591.345291 591.614075,594.007339 584.057373,596.780654 z" />
    <path fill="#1B5E20" d="M324.198242,589.326111 C308.433655,595.094543 293.037018,600.743958 277.509674,606.441345 C276.636658,600.635803 280.378510,592.990051 284.626465,591.376831 C300.499268,585.348938 316.405090,579.408081 332.298126,573.433533 C333.390839,573.022705 334.474731,572.545654 335.659790,573.110107 C336.860168,579.547119 332.403534,586.013184 324.198242,589.326111 z" />
  </g>
  <g transform="translate(500.08,-52.45)">
    <path fill="#1B5E20" d="M410.776062,57.725883 C419.608002,49.999458 427.179565,51.485912 436.603058,57.502514 C460.183807,72.558075 485.747131,84.284317 509.551544,99.044273 C534.471191,114.495735 557.957275,131.713928 575.388489,155.789978 C592.947205,180.042114 603.036072,207.148056 603.141602,237.234970 C603.425781,318.233154 603.216614,399.233032 603.338013,480.232025 C603.344849,484.813080 601.939514,486.314362 597.350830,486.298157 C558.518250,486.161102 519.685059,486.228088 480.852112,486.184784 C478.935883,486.182648 476.849213,486.689453 474.877289,485.067383 C475.509247,482.823730 477.644592,482.480316 479.309326,481.746918 C508.091949,469.067200 538.192078,463.129974 569.662842,463.711792 C582.776184,463.954254 581.006226,465.309570 581.023865,452.778625 C581.124023,381.612915 581.310547,310.445679 580.948792,239.281601 C580.772034,204.506516 566.617554,175.534424 542.022400,151.214401 C521.724976,131.143921 497.390717,117.053703 472.835205,103.224777 C457.591461,94.639946 442.222809,86.277084 426.948029,77.746910 C424.929169,76.619507 423.193054,75.952606 420.938904,77.277458 C392.509338,93.986649 362.570557,108.077271 335.144135,126.520172 C315.105621,139.995041 296.586395,155.125580 283.627441,176.000000 C271.222717,195.981659 264.300201,217.696167 264.246368,241.251129 C264.081909,313.250153 264.177917,385.249817 264.181610,457.249237 C264.181946,463.729980 264.215515,463.875885 270.953705,463.723663 C294.383545,463.194244 317.534821,464.843048 340.149231,471.589966 C350.397614,474.647552 360.318420,478.460815 369.914307,483.151337 C370.646179,483.509094 371.390594,483.950806 371.265717,485.112061 C369.957031,486.849731 367.970764,486.130585 366.262634,486.132935 C327.096405,486.186768 287.930145,486.196686 248.763885,486.197144 C242.206711,486.197235 242.004883,486.011230 242.006622,479.476624 C242.025406,408.644165 241.871826,337.810730 242.235764,266.979980 C242.320175,250.551376 241.367065,234.039337 244.282913,217.658051 C251.524124,176.976639 273.298431,145.615158 305.476501,120.695847 C328.378326,102.960205 353.661163,89.142288 379.008698,75.395782 C389.552338,69.677757 399.978638,63.743382 410.776062,57.725883z" />
    <path fill="#1B5E20" d="M393.545898,306.492584 C407.332703,324.053192 415.633179,343.594604 418.840210,365.306580 C419.130676,367.273132 419.228699,369.284363 419.230164,371.274963 C419.257355,408.587646 419.260345,445.900360 419.248169,483.213043 C419.247620,484.826721 419.543915,486.515198 418.594910,488.191895 C415.850037,488.051697 415.704895,485.627136 414.885406,484.054413 C401.136627,457.668121 382.124084,436.405029 355.311493,422.738953 C342.763763,416.343536 329.573181,411.845825 315.526886,410.275055 C311.115601,409.781738 310.797241,407.175293 310.802765,403.668579 C310.875641,357.527527 310.875275,311.386383 310.894714,265.245239 C310.897156,259.424377 311.631470,258.640686 317.218750,259.912323 C338.797363,264.823578 358.648285,273.413116 375.588867,287.983978 C382.036865,293.529999 388.143738,299.425201 393.545898,306.492584 z" />
    <path fill="#7BA77E" d="M426.771027,396.999817 C426.790375,392.668457 427.160858,388.800598 426.768005,385.011871 C424.542816,363.552246 433.660309,346.452698 447.440094,331.264954 C464.758301,312.177216 486.484528,300.515381 511.283508,294.187317 C514.859802,293.274750 516.149780,294.454315 516.300415,298.001251 C517.225647,319.786743 518.193848,341.570892 519.297180,363.347900 C519.488770,367.129425 518.278076,368.920654 514.506409,370.056854 C480.312164,380.358215 455.716248,402.333466 438.635040,433.220520 C435.495972,438.896790 432.503082,444.673615 430.283478,450.806488 C429.859680,451.977448 429.634521,453.471405 426.769653,453.603394 C426.769653,434.857025 426.769653,416.178467 426.771027,396.999817 z" />
    <path fill="#1B5E20" d="M301.627533,453.391541 C294.998260,453.220215 288.837830,452.999359 282.675812,452.937744 C279.239807,452.903351 277.582489,451.702667 277.587524,447.920715 C277.644623,404.943542 277.607849,361.966187 277.500275,318.989105 C277.492462,315.869415 278.759247,314.798035 281.628357,314.844482 C285.125580,314.901154 288.632324,315.006409 292.120453,314.819641 C296.016510,314.611053 297.441162,316.267151 297.393738,320.115509 C297.260315,330.941162 297.375641,341.769806 297.380341,352.597290 C297.389526,373.752899 297.394226,394.908508 297.391998,416.064117 C297.391266,423.010834 297.397583,422.874481 304.265900,423.817657 C339.780243,428.694427 369.166809,444.751526 392.297058,472.204010 C397.781281,478.713043 402.854523,485.508179 407.297607,492.766449 C407.949646,493.831665 409.217133,494.719666 408.530548,496.580658 C406.488312,497.006348 405.383026,495.287811 404.037476,494.281525 C378.902039,475.483337 351.525452,461.546021 320.381866,455.881287 C314.336578,454.781708 308.193634,454.218964 301.627533,453.391541 z" />
    <path fill="#7BA77E" d="M488.894836,398.834534 C504.871002,388.230957 522.135437,382.178650 540.707825,379.502167 C544.677673,378.930054 546.289551,379.932861 546.214478,384.002747 C546.082458,391.162292 546.138794,398.326385 546.200989,405.487823 C546.224915,408.238495 545.258484,409.830292 542.319824,410.219513 C493.596313,416.672424 458.318634,443.075623 432.886322,484.064606 C432.193909,485.180573 431.376923,486.223938 430.553375,487.249237 C430.411346,487.426086 429.943420,487.341187 428.349030,487.521973 C439.027710,451.074585 456.834686,420.396790 488.894836,398.834534 z" />
    <path fill="#1B5E20" d="M507.777039,434.677124 C525.448914,427.613251 543.488220,424.107452 562.038513,422.888306 C565.930725,422.632538 568.052002,423.749390 567.955688,428.056000 C567.810425,434.548004 567.794861,441.049805 567.981323,447.540009 C568.114990,452.193298 565.531006,453.115295 561.655701,453.037109 C546.085083,452.722931 530.791626,454.725586 515.727295,458.641846 C488.762085,465.651978 464.391357,477.925507 442.215424,494.697632 C440.990173,495.624329 440.005615,497.328461 437.151215,496.263123 C453.684235,467.566833 477.048523,447.248596 507.777039,434.677124 z" />
  </g>
</svg>